# xmcd
# 
# Track frame offsets:
#     150
#     21338
#     47488
#     71435
#     91380
#     113730
#     133688
#     151988
#     172048
# 
# Disc length: 2595
# 
# Revision: 37
# Processed by: cddbd v1.5.2PL0 Copyright (c) Steve Scherf et al.
# Submitted via: fre:ac v1.0.17
# 
DISCID=710a2109
DTITLE=Bruce Hornsby and The Range - The Way It Is
DYEAR=1986
DGENRE=Rock
TTITLE0=On the Western Skyline
TTITLE1=Every Little Kiss
TTITLE2=Mandolin Rain
TTITLE3=The Long Race
TTITLE4=The Way It Is
TTITLE5=Down the Road Tonight
TTITLE6=The Wild Frontier
TTITLE7=The River Runs Low
TTITLE8=The Red Plains
EXTD=
EXTT0=
EXTT1=
EXTT2=
EXTT3=
EXTT4=
EXTT5=
EXTT6=
EXTT7=
EXTT8=
PLAYORDER=
